<svg xmlns="http://www.w3.org/2000/svg" viewBox="0 0 800 500">
  <rect width="800" height="500" fill="#101510"/>
  <svg x="200" y="202" width="400" height="95.24" viewBox="0 0 168 40">
    <defs>
      <clipPath id="cp">
        <rect y="0" width="168" height="40"/>
      </clipPath>
    </defs>
    <g clip-path="url(#cp)" fill="#ffffff">
      <path d="M3.7,32.7c-2.2,0-3.7,1.5-3.7,3.6s1.5,3.6,3.7,3.6h14.6c2.2,0,3.7-1.5,3.7-3.6v-3.7H3.7Z"/>
      <path d="M7.3,7.3h14.7v14.5H7.3V7.3h-3.7c-2.1,0-3.7,1.5-3.7,3.7v7.2c0,2.2,1.5,3.7,3.7,3.7h3.6v3.6c0,2.2,1.5,3.7,3.7,3.7h11v3.6h3.7c2.1,0,3.7-1.5,3.7-3.7V3.7C29.4,1.5,27.8,0,25.6,0h-14.6C8.9,0,7.3,1.5,7.3,3.6v3.6Z"/>
      <path d="M56.7,25.4c0,2.2,1.5,3.7,3.6,3.7s3.7-1.5,3.7-3.7v-14.4c0-2.2-1.5-3.7-3.7-3.7h-3.6v-3.6C56.7,1.5,55.1,0,53,0h-14.6C36.2,0,34.7,1.5,34.7,3.7v21.7c0,2.2,1.5,3.7,3.6,3.7s3.7-1.5,3.7-3.7V7.3h14.7v18.1Z"/>
      <path d="M76.7,3.6v3.6h14.7v14.5h3.7c2.1,0,3.7-1.5,3.7-3.7v-7.2c0-2.2-1.5-3.7-3.7-3.7h-3.6v-3.6C91.3,1.5,89.8,0,87.6,0h-7.2C78.2,0,76.7,1.5,76.7,3.6h0Z"/>
      <path d="M76.6,7.3h-3.7c-2.1,0-3.7,1.5-3.7,3.7v7.2c0,2.2,1.5,3.7,3.7,3.7h3.6v3.6c0,2.2,1.5,3.7,3.7,3.7h7.2c2.2,0,3.7-1.5,3.7-3.6v-3.7h-14.7V7.3Z"/>
      <path d="M107.7,21.8c-2.2,0-3.7,1.5-3.7,3.6s1.5,3.6,3.7,3.6h14.6c2.2,0,3.7-1.5,3.7-3.6v-3.7h-18.3Z"/>
      <path d="M111.3,7.3h18.3c2.2,0,3.7-1.5,3.7-3.6S131.8,0,129.6,0h-14.6C112.9,0,111.3,1.5,111.3,3.6v3.6Z"/>
      <path d="M111.3,10.9v-3.6h-3.7c-2.1,0-3.7,1.5-3.7,3.7v3.5c0,2.2,1.5,3.7,3.7,3.7h18.3v3.6h3.7c2.1,0,3.7-1.5,3.7-3.7v-3.5c0-2.2-1.5-3.7-3.7-3.7h-18.3Z"/>
      <path d="M142.4,21.8c-2.2,0-3.7,1.5-3.7,3.6s1.5,3.6,3.7,3.6h14.6c2.2,0,3.7-1.5,3.7-3.6v-3.7h-18.3Z"/>
      <path d="M146,7.3h18.3c2.2,0,3.7-1.5,3.7-3.6S166.4,0,164.3,0h-14.6C147.5,0,146,1.5,146,3.6v3.6Z"/>
      <path d="M146,10.9v-3.6h-3.7c-2.1,0-3.7,1.5-3.7,3.7v3.5c0,2.2,1.5,3.7,3.7,3.7h18.3v3.6h3.7c2.1,0,3.7-1.5,3.7-3.7v-3.5c0-2.2-1.5-3.7-3.7-3.7h-18.3Z"/>
    </g>
  </svg>
</svg>
